<svg xmlns="http://www.w3.org/2000/svg" width="36" height="36" viewBox="1 0 39 36" fill="none">
  <path d="M14.7556 16.4755C14.1687 17.4358 14.1687 18.6439 14.7556 19.6042L23.3353 33.6437C24.1592 34.9918 25.8875 35.4699 27.2871 34.7368L32.597 31.9555C34.0823 31.1776 34.6416 29.3333 33.8387 27.8614L31.7543 24.04H37.2999C38.9568 24.04 40.2999 22.6968 40.2999 21.04V15.04C40.2999 13.3831 38.9568 12.04 37.2999 12.04H31.7542L33.8387 8.21831C34.6416 6.7464 34.0823 4.90218 32.597 4.12423L27.2871 1.34292C25.8875 0.609808 24.1592 1.0879 23.3353 2.43607L14.7556 16.4755Z" fill="#0C4BCB" />
  <path d="M25.8441 16.4755C26.431 17.4358 26.431 18.6439 25.8441 19.6042L17.2644 33.6437C16.4405 34.9918 14.7122 35.4699 13.3126 34.7368L8.00268 31.9555C6.51745 31.1776 5.95812 29.3333 6.76098 27.8614L8.84544 24.04H3.2998C1.64295 24.04 0.299805 22.6968 0.299805 21.04V15.04C0.299805 13.3831 1.64295 12.04 3.2998 12.04H8.84556L6.76098 8.21831C5.95812 6.7464 6.51745 4.90218 8.00268 4.12423L13.3126 1.34292C14.7122 0.609808 16.4405 1.0879 17.2644 2.43607L25.8441 16.4755Z" fill="#52FAFF" />
  <path d="M20.2997 7.40417L25.8434 16.4755C26.4302 17.4359 26.4302 18.6439 25.8434 19.6042L20.2997 28.6757L14.7561 19.6043C14.1692 18.6439 14.1692 17.4359 14.7561 16.4756L20.2997 7.40417Z" fill="#00DFFF" />
</svg>