<svg width="34" height="33" viewBox="0 0 34 33" fill="none" xmlns="http://www.w3.org/2000/svg">
<path fill-rule="evenodd" clip-rule="evenodd" d="M19.0986 33C19.6509 33 20.0954 32.5514 20.1485 32.0017C20.1909 31.5623 20.2613 31.1004 20.3627 30.6313C21.1094 29.3912 22.7237 28.8846 25.6281 28.8846H33C33.5523 28.8846 34 28.4369 34 27.8846V5C34 4.44772 33.5523 4 33 4H29V1C29 0.447715 28.5523 0 28 0H25.276C20.2494 0 18.3521 2.988 17 5.38725C15.6479 2.988 13.7506 0 8.72402 0H6C5.44772 0 5 0.447715 5 1V4H1C0.447715 4 0 4.44772 0 5V27.8846C0 28.4369 0.447716 28.8846 1 28.8846H8.37192C11.2763 28.8846 12.8906 29.3912 13.6373 30.6313C13.7387 31.1004 13.8091 31.5623 13.8515 32.0017C13.9046 32.5514 14.3491 33 14.9014 33H19.0986ZM7.5 22.1978H8.72402C12.1758 22.1978 13.4384 24.2241 14.7124 26.4488C15.0218 26.9891 15.2825 27.5534 15.4993 28.1254C15.4998 27.7509 15.5 27.3614 15.5 26.9596C15.4999 25.2727 15.4966 23.3717 15.4918 21.4495C15.4829 17.966 15.4688 14.4051 15.4589 11.9411L15.454 10.7723C15.4537 10.7035 15.4534 10.6358 15.4531 10.569V8.96194C15.3451 5.45282 12.7709 1.98663 7.50108 2.5H7.5V22.1978ZM18.5411 11.9414L18.5451 11.0039L18.5449 8.96585C18.6527 5.46581 21.2087 2.00847 26.4561 2.5H26.5V4H26.498V6.5H26.5V22.1978H25.276C21.8242 22.1978 20.5616 24.2241 19.2876 26.4488C18.9782 26.9891 18.7175 27.5534 18.5007 28.1254C18.5003 27.7526 18.5 27.365 18.5 26.965C18.5001 25.2768 18.5034 23.3738 18.5082 21.4495C18.5171 17.9661 18.5312 14.4054 18.5411 11.9414ZM29 6.5H31.5V26.3846H25.6281C24.4091 26.3846 23.2126 26.4615 22.1178 26.7193C23.0818 25.5267 23.4364 24.6978 25.276 24.6978H28C28.5523 24.6978 29 24.2501 29 23.6978V6.5ZM8.37192 26.3846C9.59086 26.3846 10.7874 26.4615 11.8822 26.7193C10.9182 25.5267 10.5636 24.6978 8.72402 24.6978H6C5.44772 24.6978 5 24.2501 5 23.6978V6.5H2.5V26.3846H8.37192Z" fill="#1890FF"/>
</svg>
