<svg xmlns="http://www.w3.org/2000/svg" viewBox="0 0 30 30" fill="none">
  <path d="M3.34488 20.5984L3.01253 19.0388C3.01253 19.0388 1.16615 12.8383 2.90175 7.91222C4.63735 2.9861 13.1307 0.570594 16.6204 1.88296C20.0916 3.19532 21.8825 5.38259 21.8825 5.38259C21.8825 5.38259 12.5953 9.54792 9.89953 15.0446L7.25921 18.9247C7.25921 18.9247 4.78506 15.4821 5.72671 12.0585C5.72671 12.0585 4.52656 16.2999 4.61888 20.6364C4.7112 23.9649 3.34488 20.5984 3.34488 20.5984Z" fill="#DC3832"/>
  <path opacity="0.27" d="M6.00662 18C5.98861 17.924 5.82651 15.8338 9.0504 12.6035C9.0504 12.6035 8.76223 13.4206 8.85229 13.6866C8.85229 13.6866 12.0041 8.7652 14.2555 7.81511C14.2555 7.81511 13.9853 8.32816 14.1834 8.67019C14.1834 8.67019 14.6517 7.30207 15.4982 6.92204C15.4982 6.92204 14.9939 7.6821 15.174 8.08114C15.174 8.08114 19.1543 4.1858 22 5.15488L19.7847 8.87921L12.2203 13.4966L7.14128 17.943L6.00662 18Z" fill="#5D5D5D"/>
  <path d="M1.11076 22.2341C1.11076 22.2341 0.98151 23.1661 0.999974 23.2802C1.01844 23.3943 1.07383 24.2692 1.83085 25.1251C1.83085 25.1251 1.72006 24.8779 2.03395 25.03C2.32937 25.1822 2.29244 25.6386 2.29244 25.6386C2.29244 25.6386 2.86482 25.9239 3.2341 25.7718C3.2341 25.7718 3.89879 26.0761 4.26807 25.981C4.26807 25.981 4.10189 25.7337 4.74813 25.6577C5.39436 25.5816 5.94828 25.4104 6.22523 25.1061C6.22523 25.1061 5.87442 25.03 6.42834 24.5735C6.98225 24.1171 7.24074 22.9759 7.27767 22.6335C7.27767 22.6335 7.14842 22.9188 7.00071 23.0329C7.00071 23.0329 7.20382 21.6445 6.4468 20.7696C6.4468 20.7696 6.72376 21.3402 6.59451 21.5684C6.59451 21.5684 6.39141 20.5033 5.94828 20.18C5.50514 19.8566 5.61593 20.2561 5.09894 19.9898C4.58195 19.7235 3.93572 19.3051 2.86482 19.6474C2.86482 19.6474 3.2341 19.9137 2.75404 20.0849C2.27398 20.237 1.36925 20.9027 1.11076 21.3021C1.12922 21.3021 1.40618 21.7776 1.11076 22.2341Z" fill="white"/>
  <path d="M11.8198 18.3541C11.2474 18.2019 10.3611 18.6584 10.3611 18.6584C11.3028 17.1558 14.2385 15.3489 14.2385 15.3489C14.0908 15.7103 14.3493 15.9195 14.3493 15.9195C14.774 14.7023 17.1927 12.6862 17.1927 12.6862C16.8419 13.5991 17.1743 13.8654 17.1743 13.8654C17.5436 12.3819 18.596 11.4309 18.596 11.4309C17.8944 12.1726 18.1344 12.8574 18.1344 12.8574C18.1344 12.8574 19.6669 11.1266 21.4948 10.2517C23.3227 9.37674 24.3752 9.45282 24.3752 9.45282C24.3013 8.29262 22.7873 7.58889 22.7873 7.58889C22.8057 7.05633 23.3966 7.62693 23.3966 7.62693C22.7134 6.77104 20.8486 5.61083 20.2577 5.23044C17.8759 6.06731 15.9372 8.04536 15.9372 8.04536C15.8633 7.56987 16.5096 6.94222 16.5096 6.94222C15.3094 7.55085 14.9586 8.69203 14.9586 8.69203C15.0325 8.12144 15.3648 7.77909 15.3648 7.77909C11.6167 9.7191 9.30869 13.8654 9.30869 13.8654C9.29023 13.3519 9.62258 12.6672 9.62258 12.6672C9.62258 12.6672 6.02214 15.6533 6.4468 17.7454C6.87147 19.8376 8.45936 21.3972 8.45936 21.3972C8.10855 20.7696 8.25626 20.3131 8.25626 20.3131C8.47782 20.7125 8.75478 21.0359 9.03174 21.3021C9.73336 19.6854 11.8198 18.3541 11.8198 18.3541Z" fill="white"/>
  <path d="M24.6152 7.85515C24.6337 7.3226 25.2245 7.89319 25.2245 7.89319C24.4121 6.86612 21.8826 5.38258 21.8826 5.38258C22.2518 5.3065 22.6211 5.62984 22.6211 5.62984C22.1964 4.85003 21.6425 4.90709 21.6425 4.90709C21.2917 4.94513 20.9409 5.02121 20.6085 5.11631C20.5532 5.13533 20.4978 5.15435 20.4424 5.17337C20.3685 5.19238 20.3131 5.2114 20.2393 5.23042C20.8486 5.5918 22.695 6.77102 23.3781 7.62691C23.3781 7.62691 22.7688 7.07534 22.7688 7.58887C22.7688 7.58887 24.3013 8.27359 24.3567 9.45281C24.3567 9.45281 23.3043 9.37673 21.4763 10.2516C19.6484 11.1265 18.1159 12.8573 18.1159 12.8573C18.1159 12.8573 17.8759 12.1726 18.5775 11.4309C18.5775 11.4309 17.5066 12.3819 17.1558 13.8654C17.1558 13.8654 16.8419 13.5991 17.1743 12.6862C17.1743 12.6862 14.7555 14.7023 14.3309 15.9195C14.3309 15.9195 14.0724 15.7103 14.2201 15.3489C14.2201 15.3489 11.2843 17.1558 10.3427 18.6584C10.3427 18.6584 11.2289 18.2019 11.8013 18.3541C11.8013 18.3541 9.73336 19.6854 9.01328 21.2831C9.80722 22.0249 10.6566 22.2151 10.6566 22.2151C10.952 20.3321 13.6477 18.6013 13.6477 18.6013C13.0753 18.4492 12.189 18.9056 12.189 18.9056C13.1307 17.4031 16.0664 15.5962 16.0664 15.5962C15.9187 15.9576 16.1772 16.1668 16.1772 16.1668C16.6019 14.9495 19.0207 12.9334 19.0207 12.9334C18.6698 13.8464 19.0022 14.1126 19.0022 14.1126C19.3715 12.6291 20.4239 11.6781 20.4239 11.6781C19.7223 12.4199 19.9623 13.1046 19.9623 13.1046C19.9623 13.1046 21.4948 11.3738 23.3227 10.4989C25.1506 9.62399 25.9631 10.556 25.9631 10.556C26.24 9.16751 24.6152 7.85515 24.6152 7.85515Z" fill="#F2F2F2"/>
  <path d="M7.01919 23.0329C7.01919 23.0329 7.22229 21.6445 6.46528 20.7696C6.46528 20.7696 6.74223 21.3402 6.61299 21.5684C6.61299 21.5684 6.40988 20.5033 5.96675 20.18C5.52362 19.8566 5.6344 20.256 5.11742 19.9898C4.63736 19.7425 4.04652 19.3621 3.0864 19.5904C3.64031 19.5904 4.04652 19.8376 4.37886 20.0088C4.84046 20.237 4.74814 19.8757 5.13588 20.18C5.52362 20.4653 5.70826 21.4163 5.70826 21.4163C5.81904 21.207 5.57901 20.7125 5.57901 20.7125C6.26217 21.4733 6.07753 22.7286 6.07753 22.7286C6.20678 22.6145 6.31756 22.3672 6.31756 22.3672C6.2991 22.6906 6.05907 23.6986 5.56055 24.098C5.06203 24.4975 5.37591 24.5735 5.37591 24.5735C5.11742 24.8588 4.63736 24.992 4.06498 25.068C3.4926 25.1441 3.64031 25.3533 3.64031 25.3533C3.30796 25.4294 2.71712 25.1631 2.71712 25.1631C2.56941 25.2202 2.36631 25.2012 2.20013 25.1631C2.32938 25.3533 2.31092 25.6386 2.31092 25.6386C2.31092 25.6386 2.8833 25.9239 3.25257 25.7718C3.25257 25.7718 3.91727 26.0761 4.28654 25.981C4.28654 25.981 4.12037 25.7337 4.7666 25.6577C5.41284 25.5816 5.96675 25.4104 6.24371 25.1061C6.24371 25.1061 5.8929 25.03 6.44681 24.5735C7.00073 24.1171 7.25922 22.9759 7.29615 22.6335C7.27768 22.6335 7.1669 22.9188 7.01919 23.0329Z" fill="#F2F2F2"/>
</svg>
