<svg width="34" height="34" viewBox="0 0 34 34" fill="none" xmlns="http://www.w3.org/2000/svg">
<path d="M2.75 16.9885C2.75 9.13005 9.22382 2.72705 17.25 2.72705C21.2033 2.72705 24.7829 4.28154 27.3973 6.80121H24C23.4477 6.80121 23 7.24893 23 7.80121V8.30121C23 8.8535 23.4477 9.30121 24 9.30121H31.0108V2C31.0108 1.44772 30.563 1 30.0108 1H29.5108C28.9585 1 28.5108 1.44771 28.5108 2V4.43139C25.5111 1.81466 21.5666 0.227051 17.25 0.227051C7.87921 0.227051 0.25 7.7135 0.25 16.9885C0.25 26.1809 7.7439 33.6165 17 33.7482V33.75C17.0402 33.75 17.0804 33.7498 17.1206 33.7495C17.1637 33.7498 17.2068 33.75 17.25 33.75C17.25 33.7489 17.2509 33.748 17.252 33.748C17.4283 33.7451 17.6041 33.7392 17.7794 33.7304C18.0763 33.7155 18.2961 33.454 18.2709 33.1578L18.1884 32.186C18.1424 31.6432 17.6646 31.2444 17.1199 31.2494C9.15396 31.1807 2.75 24.8045 2.75 16.9885Z" fill="#1890FF"/>
<path d="M17.9922 8.29388C17.9922 7.7416 17.5445 7.29388 16.9922 7.29388H16.4922C15.9399 7.29388 15.4922 7.7416 15.4922 8.29388V18.2006L20.2548 22.1582C20.6796 22.5111 21.3101 22.4529 21.663 22.0282L21.9826 21.6436C22.3356 21.2188 22.2774 20.5884 21.8526 20.2354L17.9922 17.0275V8.29388Z" fill="#1890FF"/>
<path d="M33.75 17C33.75 17.442 33.7311 17.8811 33.6942 18.3165L31.2031 18.105C31.2342 17.7393 31.25 17.3708 31.25 17H33.75Z" fill="#1890FF"/>
<path d="M33.2545 20.9068C33.0365 21.7578 32.7503 22.5858 32.4029 23.3843L30.1105 22.387C30.4061 21.7075 30.6485 21.0054 30.8327 20.2865L33.2545 20.9068Z" fill="#1890FF"/>
<path d="M31.1797 25.6922C30.7149 26.4279 30.1952 27.128 29.6275 27.7859L27.7348 26.1526C28.2225 25.5874 28.6682 24.9868 29.0662 24.3569L31.1797 25.6922Z" fill="#1890FF"/>
<path d="M27.7859 29.6275C27.128 30.1952 26.4279 30.7149 25.6922 31.1797L24.3569 29.0662C24.9868 28.6682 25.5874 28.2225 26.1526 27.7348L27.7859 29.6275Z" fill="#1890FF"/>
<path d="M23.3843 32.4029C22.5858 32.7503 21.7578 33.0365 20.9068 33.2545L20.2865 30.8327C21.0054 30.6485 21.7075 30.4061 22.387 30.1105L23.3843 32.4029Z" fill="#1890FF"/>
</svg>
