<svg width="30" height="30" viewBox="0 0 30 30" fill="none" xmlns="http://www.w3.org/2000/svg">
<rect opacity="0.3" x="5" y="11.4961" width="4" height="9" rx="1" fill="#8B96AE"/>
<rect opacity="0.3" x="11" y="11.4961" width="4" height="9" rx="1" fill="#8B96AE"/>
<path fill-rule="evenodd" clip-rule="evenodd" d="M17 20.6448V13.5049H17.2474C17.4336 13.5049 17.6043 13.4015 17.6905 13.2365L19.242 10.2684C19.4407 9.88839 19.9941 9.91831 20.1506 10.3175L21.2758 13.1874C21.3508 13.3789 21.5356 13.5049 21.7413 13.5049H24.5542C25.005 13.5049 25.2256 14.0546 24.8998 14.3662L22.7061 16.4645C22.5785 16.5865 22.5247 16.7669 22.5647 16.9389L23.3099 20.1463C23.413 20.5902 22.917 20.9294 22.5408 20.6723L20.0323 18.9585C19.8622 18.8423 19.6383 18.8423 19.4682 18.9585L17 20.6448Z" fill="#FAAD14"/>
</svg>
