<svg width="37" height="26" viewBox="0 0 37 26" fill="none" xmlns="http://www.w3.org/2000/svg">
<path d="M23.4187 11.3757C22.3977 11.3757 21.6036 12.2265 21.6036 13.1908C21.6036 14.2118 22.3977 15.0059 23.4187 15.0059C24.383 15.0059 25.2338 14.2118 25.2338 13.1908C25.2338 12.2265 24.383 11.3757 23.4187 11.3757ZM36.9186 17.8987L35.3871 7.632C34.9333 4.68245 32.7779 2.35685 29.9418 1.73291C26.3683 0.938802 22.6246 0.541748 18.8243 0.541748C15.0239 0.541748 11.337 0.938802 7.76346 1.73291C4.92736 2.35685 2.77193 4.68245 2.31815 7.632L0.786657 17.8987C0.162715 22.0961 3.33915 25.8965 7.5933 25.8965C10.316 25.8965 12.6416 24.365 13.7193 22.0961L14.5134 20.4512H23.1918L23.986 22.0961C25.0637 24.365 27.3893 25.8965 30.1119 25.8965C34.3661 25.8965 37.5425 22.0961 36.9186 17.8987ZM33.2316 21.7558C32.4943 22.6633 31.3598 23.2305 30.1119 23.2305C30.1119 23.2305 30.1119 23.2305 30.1119 23.1738C28.5237 23.1738 27.1057 22.323 26.425 20.8482L25.6309 19.26L24.8935 17.7285H12.8117L12.0743 19.26L11.2802 20.8482C10.5996 22.323 9.18151 23.1738 7.5933 23.1738H7.53658C6.34541 23.1738 5.21097 22.6633 4.47359 21.7558C3.79292 21.0184 3.45259 20.0541 3.45259 18.9764C3.45259 18.7495 3.45259 18.5226 3.45259 18.2957L5.04081 8.02905C5.32442 6.21395 6.62902 4.7959 8.33068 4.39884C11.734 3.66146 15.2508 3.2644 18.881 3.2644C22.5112 3.2644 25.9712 3.66146 29.3745 4.39884C31.0762 4.7959 32.3808 6.21395 32.6644 8.02905L34.2526 18.2957C34.2526 18.5226 34.2526 18.7495 34.2526 18.9764C34.2526 20.0541 33.9123 21.0184 33.2316 21.7558ZM28.8641 7.74544C27.8431 7.74544 27.0489 8.59627 27.0489 9.56055C27.0489 10.5815 27.8431 11.3757 28.8641 11.3757C29.8283 11.3757 30.6792 10.5815 30.6792 9.56055C30.6792 8.59627 29.8283 7.74544 28.8641 7.74544ZM15.7045 10.0143H12.9819V7.29167C12.9819 7.06478 12.755 6.83789 12.5281 6.83789H10.713C10.4294 6.83789 10.2592 7.06478 10.2592 7.29167V10.0143H7.53658C7.25297 10.0143 7.0828 10.2412 7.0828 10.4681V12.2832C7.0828 12.5668 7.25297 12.737 7.53658 12.737H10.2592V15.4596C10.2592 15.7432 10.4294 15.9134 10.713 15.9134H12.5281C12.755 15.9134 12.9819 15.7432 12.9819 15.4596V12.737H15.7045C15.9314 12.737 16.1583 12.5668 16.1583 12.2832V10.4681C16.1583 10.2412 15.9314 10.0143 15.7045 10.0143Z" fill="#1890FF"/>
</svg>
