<svg width="32" height="32" viewBox="0 0 32 32" fill="none" xmlns="http://www.w3.org/2000/svg">
<path d="M15.9999 0.566528C7.47799 0.566528 0.571289 7.47323 0.571289 15.9951V30.4594C0.571289 30.9938 1.0012 31.4237 1.53557 31.4237H8.92843C10.3467 31.4237 11.4999 30.2706 11.4999 28.8522V20.4951C11.4999 19.0768 10.3467 17.9237 8.92843 17.9237H3.46415V15.9951C3.46415 9.07233 9.07709 3.45939 15.9999 3.45939C22.9226 3.45939 28.5356 9.07233 28.5356 15.9951V17.9237H23.0713C21.653 17.9237 20.4999 19.0768 20.4999 20.4951V28.8522C20.4999 30.2706 21.653 31.4237 23.0713 31.4237H30.4642C30.9985 31.4237 31.4284 30.9938 31.4284 30.4594V15.9951C31.4284 7.47323 24.5217 0.566528 15.9999 0.566528ZM8.60701 20.8165V28.5308H3.46415V20.8165H8.60701ZM28.5356 28.5308H23.3927V20.8165H28.5356V28.5308Z" fill="#1890FF"/>
</svg>
