<svg width="36" height="21" viewBox="0 0 36 21" fill="none" xmlns="http://www.w3.org/2000/svg">
<path d="M6 5.5C6 5.22386 6.22386 5 6.5 5H8.51858C8.66538 5 8.80476 5.06451 8.89976 5.17643L12.75 9.71226L16.6002 5.17645C16.6952 5.06453 16.8346 5.00002 16.9814 5.00002L19 5C19.2761 5 19.5 5.22386 19.5 5.5V15.5C19.5 15.7761 19.2761 16 19 16H17.5C17.2239 16 17 15.7761 17 15.5V8.48417L13.7149 12.4732L12.75 13.5L11.7851 12.4732L8.5 8.48417V15.5C8.5 15.7761 8.27614 16 8 16H6.5C6.22386 16 6 15.7761 6 15.5V5.5Z" fill="#1890FF"/>
<path d="M27 12H30L26.16 16L22 12H25V5.5C25 5.22386 25.2239 5 25.5 5H26.5C26.7761 5 27 5.22386 27 5.5V12Z" fill="#1890FF"/>
<path fill-rule="evenodd" clip-rule="evenodd" d="M0 1C0 0.447715 0.447715 0 1 0H35C35.5523 0 36 0.447715 36 1V20C36 20.5523 35.5523 21 35 21H1C0.447716 21 0 20.5523 0 20V1ZM2.5 18.5V2.5H33.5V18.5H2.5Z" fill="#1890FF"/>
</svg>
