<svg width="21" height="22" viewBox="0 0 21 22" fill="none" xmlns="http://www.w3.org/2000/svg">
<path fill-rule="evenodd" clip-rule="evenodd" d="M5.533 10.0521C5.3784 9.92303 5.18775 9.84656 4.98891 9.81477C2.63483 9.43849 0.836025 7.39854 0.836025 4.93846C0.836025 2.21102 3.04705 0 5.77448 0C8.23472 0 10.2748 1.79903 10.6509 4.15334C10.6826 4.35223 10.7591 4.54292 10.8882 4.69755L18.7025 14.0601C19.0341 14.4574 19.0078 15.042 18.6419 15.4079L18.0577 15.9921L19.6501 17.4644C20.7175 18.4513 20.7464 20.1292 19.7136 21.1523C18.9023 21.9561 17.6558 22.1232 16.6614 21.5615L8.89303 17.1732C8.25168 16.8109 7.52758 16.6205 6.79097 16.6205H6.53448C4.1741 16.6205 2.26064 18.5339 2.26064 20.8943V22H0.677734V20.8943C0.677734 17.6597 3.29989 15.0376 6.53448 15.0376H6.79097C7.80039 15.0376 8.79268 15.2985 9.67157 15.795L17.44 20.1833C17.8178 20.3967 18.2914 20.3332 18.5996 20.0278C18.992 19.6391 18.981 19.0016 18.5755 18.6266L16.9376 17.1123L16.244 17.8059C15.878 18.1718 15.2934 18.1981 14.8961 17.8665L5.533 10.0521ZM8.36309 2.80317C7.74763 2.05789 6.81652 1.5829 5.77448 1.5829C3.92126 1.5829 2.41893 3.08524 2.41893 4.93846C2.41893 6.19737 3.1122 7.29436 4.13778 7.86847C4.62587 8.14888 5.19108 8.30913 5.79352 8.30913C7.63899 8.30913 9.13504 6.80538 9.13504 4.95042C9.13504 4.13383 8.84512 3.38531 8.36309 2.80317ZM10.2855 7.09369L10.2874 7.09555L10.58 6.79854L12.0769 8.59205L9.42793 11.241L7.63421 9.74397L7.84706 9.53426L7.84601 9.53321L10.2855 7.09369ZM15.5014 16.3099L10.6481 12.2594L13.0953 9.81222L17.1459 14.6654L15.5014 16.3099Z" fill="currentColor"/>
</svg>