<svg width="32" height="35" viewBox="0 0 32 35" fill="none" xmlns="http://www.w3.org/2000/svg">
<path fill-rule="evenodd" clip-rule="evenodd" d="M7.7808 15.7612C7.6262 15.6322 7.43575 15.5547 7.23622 15.5275C3.43167 15.0088 0.5 11.7466 0.5 7.79968C0.5 3.49204 3.99204 0 8.29968 0C12.2469 0 15.5092 2.93206 16.0276 6.73698C16.0548 6.93655 16.1323 7.12705 16.2614 7.28168L29.0572 22.6126C29.3888 23.0099 29.3625 23.5946 28.9966 23.9605L27.6996 25.2576L30.2145 27.5828C31.9004 29.1416 31.946 31.7915 30.3149 33.4075C29.0334 34.677 27.0648 34.9409 25.4943 34.0537L13.225 27.1229C12.2121 26.5507 11.0685 26.25 9.9051 26.25H9.5C5.77208 26.25 2.75 29.2721 2.75 33V34.7463H0.25V33C0.25 27.8914 4.39137 23.75 9.5 23.75H9.9051C11.4994 23.75 13.0666 24.162 14.4546 24.9462L26.7239 31.877C27.3206 32.2141 28.0685 32.1138 28.5554 31.6315C29.1751 31.0175 29.1578 30.0107 28.5173 29.4185L25.9305 27.0267L24.4605 28.4966C24.0946 28.8626 23.5099 28.8889 23.1126 28.5573L7.7808 15.7612ZM12.3881 4.42726C11.416 3.25019 9.94546 2.5 8.29968 2.5C5.37275 2.5 3 4.87275 3 7.79968C3 9.78797 4.09493 11.5205 5.71472 12.4273C6.48559 12.8701 7.37827 13.1232 8.32976 13.1232C11.2444 13.1232 13.6073 10.7483 13.6073 7.81858C13.6073 6.52888 13.1494 5.34668 12.3881 4.42726ZM15.4243 11.2036L15.4272 11.2065L15.8893 10.7375L18.2536 13.5701L14.0699 17.7538L11.2369 15.3894L11.5731 15.0582L11.5714 15.0565L15.4243 11.2036ZM23.6621 25.7595L15.997 19.3622L19.862 15.4972L26.2595 23.1621L23.6621 25.7595Z" fill="#1890FF"/>
</svg>
