<svg width="36" height="32" viewBox="0 0 36 32" fill="none" xmlns="http://www.w3.org/2000/svg">
<path fill-rule="evenodd" clip-rule="evenodd" d="M18.0001 6.32469L15.2681 1.80629C14.5266 0.579955 12.9711 0.145067 11.7115 0.811929L6.93257 3.3419C5.59587 4.04955 5.09247 5.72711 5.81504 7.06601L7.69116 10.5423H2.69999C1.20883 10.5423 0 11.7641 0 13.2712V18.729C0 20.2361 1.20883 21.4579 2.69999 21.4579H7.69105L5.81504 24.934C5.09247 26.2729 5.59587 27.9505 6.93257 28.6581L11.7115 31.1881C12.9711 31.8549 14.5266 31.42 15.2681 30.1938L18.0001 25.6753L20.7321 30.1938C21.4736 31.42 23.0291 31.8549 24.2887 31.1881L29.0676 28.6581C30.4044 27.9505 30.9078 26.2729 30.1852 24.934L28.3092 21.4579H33.3002C34.7914 21.4579 36.0002 20.2361 36.0002 18.729V13.2712C36.0002 11.7641 34.7914 10.5423 33.3002 10.5423H28.3091L30.1852 7.06601C30.9078 5.72711 30.4044 4.04955 29.0676 3.3419L24.2887 0.811929C23.0291 0.145067 21.4736 0.579955 20.7321 1.80629L18.0001 6.32469ZM18.0001 11.1564L20.8505 15.8705C20.8977 15.9487 20.8977 16.0513 20.8505 16.1294L18.0001 20.8436L15.1497 16.1294C15.1024 16.0512 15.1024 15.9488 15.1497 15.8706L18.0001 11.1564ZM16.5394 8.74055L13.0104 14.577C12.4822 15.4505 12.4822 16.5495 13.0104 17.423L16.5394 23.2595L13.1288 28.9002C13.067 29.0024 12.9589 29.0198 12.8812 28.9786L8.10221 26.4486C8.0544 26.4233 8.0161 26.3809 7.9961 26.3143C7.976 26.2473 7.98259 26.1816 8.0151 26.1213L11.8811 18.9579H2.69999C2.6146 18.9579 2.5 18.8806 2.5 18.729V13.2712C2.5 13.1196 2.61455 13.0423 2.69999 13.0423H11.8812L8.0151 5.87867C7.98258 5.81841 7.976 5.75272 7.99609 5.68578C8.01609 5.61914 8.0544 5.57672 8.10227 5.55138L12.8812 3.0214C12.9589 2.98025 13.0669 2.99757 13.1288 3.09984L16.5394 8.74055ZM19.4608 8.74056L22.9898 14.577C23.518 15.4505 23.518 16.5495 22.9898 17.423L19.4608 23.2595L22.8714 28.9002C22.9333 29.0024 23.0413 29.0198 23.119 28.9786L27.8979 26.4486C27.9458 26.4233 27.9842 26.3809 28.0041 26.3143C28.0242 26.2473 28.0177 26.1816 27.9851 26.1214L24.1192 18.9579H33.3002C33.3856 18.9579 33.5002 18.8806 33.5002 18.729V13.2712C33.5002 13.1196 33.3857 13.0423 33.3002 13.0423H24.1191L27.9851 5.87871C28.0176 5.81843 28.0242 5.75268 28.0041 5.68576C27.9842 5.61917 27.9459 5.57676 27.898 5.5514L23.119 3.02141C23.0413 2.98025 22.9333 2.99756 22.8715 3.09983L19.4608 8.74056Z" fill="#1890FF"/>
</svg>
